<svg aria-hidden="true" style="position: absolute; width: 0; height: 0; overflow: hidden;" version="1.1" xmlns="http://www.w3.org/2000/svg" xmlns:xlink="http://www.w3.org/1999/xlink">
<defs>
<symbol id="icon-instagram" viewBox="0 0 32 32">
<path fill="#fff" style="fill: var(--color1, #fff)" d="M16 24.242c6.694 0 12.121-5.427 12.121-12.121s-5.427-12.121-12.121-12.121c-6.694 0-12.121 5.427-12.121 12.121s5.427 12.121 12.121 12.121z"></path>
<path fill="#000" style="fill: var(--color2, #000)" d="M20.745 10.155c-0.007-0.395-0.082-0.787-0.22-1.157-0.123-0.317-0.311-0.605-0.551-0.845s-0.529-0.428-0.846-0.55c-0.37-0.138-0.762-0.213-1.157-0.22-0.511-0.026-0.673-0.031-1.969-0.031s-1.457 0.005-1.966 0.028c-0.395 0.007-0.787 0.082-1.157 0.22-0.319 0.12-0.608 0.308-0.846 0.551-0.243 0.238-0.431 0.526-0.551 0.844-0.138 0.37-0.213 0.762-0.22 1.157-0.024 0.513-0.030 0.675-0.030 1.97s0.006 1.455 0.028 1.966c0.007 0.395 0.082 0.787 0.22 1.157 0.123 0.317 0.31 0.605 0.551 0.845s0.528 0.428 0.845 0.551c0.37 0.138 0.762 0.213 1.157 0.22 0.508 0.023 0.671 0.028 1.966 0.028s1.457-0.006 1.966-0.028c0.395-0.007 0.787-0.082 1.157-0.22 0.317-0.123 0.605-0.31 0.845-0.55s0.428-0.528 0.55-0.845c0.138-0.37 0.213-0.762 0.22-1.157 0.023-0.508 0.028-0.671 0.028-1.966s0-1.457-0.024-1.966l0.004-0.001zM19.885 14.050c-0.003 0.302-0.059 0.602-0.165 0.885-0.079 0.206-0.201 0.393-0.357 0.549s-0.343 0.278-0.549 0.357c-0.283 0.106-0.583 0.162-0.885 0.165-0.503 0.023-0.654 0.028-1.928 0.028s-1.426-0.006-1.928-0.028c-0.303-0.003-0.602-0.059-0.885-0.165-0.207-0.076-0.394-0.198-0.548-0.356-0.158-0.154-0.279-0.341-0.356-0.548-0.106-0.283-0.162-0.583-0.165-0.885-0.023-0.503-0.028-0.654-0.028-1.928s0.005-1.426 0.028-1.928c0.004-0.303 0.059-0.602 0.165-0.885 0.076-0.207 0.199-0.395 0.358-0.548 0.154-0.158 0.341-0.28 0.548-0.356 0.283-0.106 0.583-0.162 0.885-0.165 0.503-0.023 0.654-0.028 1.928-0.028s1.426 0.005 1.928 0.028c0.302 0.003 0.602 0.059 0.885 0.165 0.207 0.076 0.394 0.198 0.548 0.356 0.158 0.154 0.279 0.341 0.356 0.548 0.106 0.283 0.162 0.583 0.165 0.885 0.023 0.503 0.028 0.654 0.028 1.928s-0.005 1.422-0.028 1.925v0.001z"></path>
<path fill="#000" style="fill: var(--color2, #000)" d="M16.004 9.671c-0.485 0-0.958 0.144-1.361 0.413s-0.717 0.652-0.903 1.1c-0.185 0.448-0.234 0.941-0.139 1.416s0.328 0.912 0.671 1.255c0.343 0.343 0.779 0.576 1.255 0.671s0.968 0.046 1.416-0.139 0.831-0.5 1.1-0.903c0.269-0.403 0.413-0.877 0.413-1.362-0-0.65-0.258-1.273-0.718-1.733s-1.083-0.718-1.733-0.718zM16.004 13.712c-0.314 0-0.622-0.093-0.883-0.268s-0.465-0.423-0.585-0.713-0.152-0.61-0.090-0.918c0.061-0.308 0.213-0.591 0.435-0.814s0.506-0.374 0.814-0.435c0.308-0.061 0.628-0.030 0.918 0.090s0.539 0.324 0.713 0.585 0.268 0.569 0.268 0.883c-0 0.422-0.168 0.826-0.466 1.124s-0.702 0.466-1.124 0.466z"></path>
<path fill="#000" style="fill: var(--color2, #000)" d="M19.122 9.574c0 0.113-0.034 0.224-0.096 0.318s-0.152 0.167-0.257 0.211c-0.105 0.043-0.219 0.055-0.33 0.033s-0.213-0.076-0.293-0.156-0.134-0.182-0.157-0.293c-0.022-0.111-0.011-0.226 0.032-0.33s0.117-0.194 0.211-0.257c0.094-0.063 0.205-0.096 0.318-0.096 0.152 0 0.297 0.060 0.404 0.168s0.167 0.253 0.167 0.404z"></path>
</symbol>
<symbol id="icon-twitter" viewBox="0 0 32 32">
<path fill="#fff" style="fill: var(--color1, #fff)" d="M16 24.242c6.694 0 12.121-5.427 12.121-12.121s-5.427-12.121-12.121-12.121c-6.694 0-12.121 5.427-12.121 12.121s5.427 12.121 12.121 12.121z"></path>
<path fill="#000" style="fill: var(--color2, #000)" d="M21.634 8.708c-0.424 0.185-0.872 0.308-1.331 0.365 0.484-0.287 0.845-0.741 1.017-1.277-0.453 0.269-0.948 0.458-1.465 0.559-0.317-0.338-0.728-0.573-1.18-0.675s-0.924-0.065-1.355 0.106c-0.431 0.17-0.801 0.466-1.061 0.849s-0.4 0.836-0.4 1.299c-0.001 0.177 0.017 0.354 0.055 0.527-0.919-0.045-1.818-0.284-2.639-0.7s-1.544-1.001-2.123-1.716c-0.297 0.508-0.388 1.11-0.257 1.683s0.477 1.075 0.966 1.402c-0.366-0.010-0.723-0.107-1.044-0.284v0.029c0.001 0.533 0.185 1.050 0.522 1.464s0.806 0.698 1.329 0.806c-0.198 0.052-0.402 0.078-0.606 0.076-0.147 0.003-0.294-0.011-0.438-0.040 0.15 0.457 0.438 0.857 0.824 1.145s0.852 0.448 1.333 0.461c-0.818 0.641-1.826 0.988-2.865 0.988-0.184 0.001-0.368-0.010-0.551-0.032 1.056 0.681 2.287 1.041 3.544 1.037 0.865 0.006 1.723-0.16 2.523-0.488s1.528-0.812 2.139-1.424c0.612-0.612 1.096-1.339 1.424-2.139s0.494-1.658 0.489-2.523c0-0.102-0.003-0.201-0.008-0.299 0.456-0.326 0.848-0.733 1.158-1.199z"></path>
</symbol>
<symbol id="icon-facebook" viewBox="0 0 32 32">
<path fill="#fff" style="fill: var(--color1, #fff)" d="M16 24.242c6.694 0 12.121-5.427 12.121-12.121s-5.427-12.121-12.121-12.121c-6.694 0-12.121 5.427-12.121 12.121s5.427 12.121 12.121 12.121z"></path>
<path fill="#000" style="fill: var(--color2, #000)" d="M17.749 8.441h1.006v-1.752c-0.174-0.024-0.77-0.078-1.466-0.078-1.45 0-2.444 0.912-2.444 2.589v1.543h-1.601v1.959h1.601v4.928h1.962v-4.928h1.536l0.244-1.959h-1.78v-1.349c0-0.566 0.153-0.954 0.942-0.954z"></path>
</symbol>
<symbol id="icon-pinterest" viewBox="0 0 32 32">
<path fill="#fff" style="fill: var(--color1, #fff)" d="M16 24.242c6.694 0 12.121-5.427 12.121-12.121s-5.427-12.121-12.121-12.121c-6.694 0-12.121 5.427-12.121 12.121s5.427 12.121 12.121 12.121z"></path>
<path fill="#000" style="fill: var(--color2, #000)" d="M19.129 7.741c-0.759-0.728-1.808-1.129-2.956-1.129-1.753 0-2.831 0.719-3.427 1.321-0.734 0.743-1.155 1.729-1.155 2.706 0 1.227 0.513 2.168 1.372 2.518 0.058 0.024 0.116 0.036 0.173 0.036 0.181 0 0.325-0.119 0.375-0.309 0.029-0.109 0.096-0.378 0.125-0.495 0.063-0.231 0.012-0.342-0.124-0.503-0.249-0.294-0.364-0.642-0.364-1.094 0-1.344 1.001-2.773 2.856-2.773 1.472 0 2.386 0.837 2.386 2.183 0 0.85-0.183 1.637-0.515 2.216-0.231 0.403-0.637 0.882-1.261 0.882-0.27 0-0.512-0.111-0.665-0.304-0.144-0.183-0.192-0.418-0.134-0.664 0.066-0.278 0.155-0.567 0.242-0.847 0.158-0.511 0.307-0.995 0.307-1.38 0-0.659-0.405-1.102-1.008-1.102-0.767 0-1.367 0.779-1.367 1.772 0 0.487 0.13 0.852 0.188 0.992-0.097 0.409-0.67 2.842-0.779 3.3-0.063 0.268-0.442 2.383 0.185 2.551 0.705 0.189 1.335-1.87 1.4-2.103 0.052-0.189 0.234-0.905 0.345-1.345 0.34 0.328 0.889 0.55 1.422 0.55 1.005 0 1.91-0.452 2.546-1.274 0.617-0.797 0.957-1.907 0.957-3.127 0-0.953-0.409-1.893-1.123-2.579z"></path>
</symbol>
<symbol id="icon-cart" viewBox="0 0 32 32">
<path d="M29 4h-26c-1.65 0-3 1.35-3 3v18c0 1.65 1.35 3 3 3h26c1.65 0 3-1.35 3-3v-18c0-1.65-1.35-3-3-3zM3 6h26c0.542 0 1 0.458 1 1v3h-28v-3c0-0.542 0.458-1 1-1zM29 26h-26c-0.542 0-1-0.458-1-1v-9h28v9c0 0.542-0.458 1-1 1zM4 20h2v4h-2zM8 20h2v4h-2zM12 20h2v4h-2z"></path>
</symbol>
<symbol id="icon-man" viewBox="0 0 32 32">
<path d="M18 3c0 1.657-1.343 3-3 3s-3-1.343-3-3c0-1.657 1.343-3 3-3s3 1.343 3 3z"></path>
<path d="M18 8h-6c-1.105 0-2 0.895-2 2v10h2v12h2.5v-12h1v12h2.5v-12h2v-10c0-1.105-0.895-2-2-2z"></path>
</symbol>
</defs>
</svg>
